<?xml version="1.0" encoding="UTF-8" standalone="no"?>
<!DOCTYPE svg PUBLIC "-//W3C//DTD SVG 1.1//EN" "http://www.w3.org/Graphics/SVG/1.1/DTD/svg11.dtd">
<!-- Generated by Microsoft Visio, SVG Export refactored.svg Page-1 -->
<svg xmlns="http://www.w3.org/2000/svg" xmlns:xlink="http://www.w3.org/1999/xlink" xmlns:ev="http://www.w3.org/2001/xml-events"
		xmlns:v="http://schemas.microsoft.com/visio/2003/SVGExtensions/" width="11.6929in" height="8.26772in"
		viewBox="0 0 841.89 595.276" xml:space="preserve" color-interpolation-filters="sRGB" class="st9">
	<v:documentProperties v:langID="1033" v:metric="true" v:viewMarkup="false">
		<v:userDefs>
			<v:ud v:nameU="msvNoAutoConnect" v:val="VT0(1):26"/>
		</v:userDefs>
	</v:documentProperties>

	<style type="text/css">
	<![CDATA[
		.st1 {fill:#ffffff;stroke:#000000;stroke-linecap:round;stroke-linejoin:round;stroke-width:0.24}
		.st2 {fill:none;stroke:#000000;stroke-linecap:round;stroke-linejoin:round;stroke-width:0.75}
		.st3 {fill:#000000;font-family:Calibri;font-size:0.666664em}
		.st4 {fill:none;stroke:none;stroke-linecap:round;stroke-linejoin:round;stroke-width:0.75}
		.st5 {font-size:1em}
		.st6 {marker-end:url(#mrkr1-161);marker-start:url(#mrkr1-159);stroke:#000000;stroke-linecap:round;stroke-linejoin:round;stroke-width:0.75}
		.st7 {fill:#000000;fill-opacity:1;stroke:#000000;stroke-opacity:1;stroke-width:0.22935779816514}
		.st8 {marker-end:url(#mrkr4-174);stroke:#000000;stroke-linecap:round;stroke-linejoin:round;stroke-width:0.75}
		.st9 {fill:none;fill-rule:evenodd;font-size:12px;overflow:visible;stroke-linecap:square;stroke-miterlimit:3}
	]]>
	</style>

	<defs id="Markers">
		<g id="lend1">
			<path d="M 1 -1 L 0 0 L 1 1 " style="stroke-linecap:round;stroke-linejoin:round;fill:none"/>
		</g>
		<marker id="mrkr1-159" class="st7" v:arrowType="1" v:arrowSize="2" orient="auto" markerUnits="strokeWidth"
				overflow="visible">
			<use xlink:href="#lend1" transform="scale(4.36) "/>
		</marker>
		<marker id="mrkr1-161" class="st7" v:arrowType="1" v:arrowSize="2" orient="auto" markerUnits="strokeWidth"
				overflow="visible">
			<use xlink:href="#lend1" transform="scale(-4.36,-4.36) "/>
		</marker>
		<g id="lend4">
			<path d="M 2 1 L 0 0 L 2 -1 L 2 1 " style="stroke:none"/>
		</g>
		<marker id="mrkr4-174" class="st7" v:arrowType="4" v:arrowSize="2" v:setback="8.72" refX="-8.72" orient="auto"
				markerUnits="strokeWidth" overflow="visible">
			<use xlink:href="#lend4" transform="scale(-4.36,-4.36) "/>
		</marker>
	</defs>
	<g v:mID="0" v:index="1" v:groupContext="foregroundPage">
		<title>Page-1</title>
		<v:pageProperties v:drawingScale="0.0393701" v:pageScale="0.0393701" v:drawingUnits="24" v:shadowOffsetX="8.50394"
				v:shadowOffsetY="-8.50394"/>
		<v:layer v:name="Connector" v:index="0"/>
		<g id="group88-1" transform="translate(18,-21.7504)" v:mID="88" v:groupContext="group">
			<title>Sheet.88</title>
			<g id="group16-2" transform="translate(579.469,-492.037)" v:mID="16" v:groupContext="group">
				<title>Sheet.16</title>
				<g id="shape5-3" v:mID="5" v:groupContext="shape" transform="translate(14.2472,0)">
					<title>Function / subroutine.5</title>
					<v:userDefs>
						<v:ud v:nameU="visVersion" v:val="VT0(15):26"/>
					</v:userDefs>
					<rect x="0" y="548.384" width="168.661" height="46.8914" class="st1"/>
				</g>
				<g id="shape13-5" v:mID="13" v:groupContext="shape" transform="translate(18.8578,-27.4364)">
					<title>Sheet.13</title>
					<desc>envirValidate</desc>
					<v:textBlock v:margins="rect(1,1,1,1)" v:tabSpace="42.5197"/>
					<v:textRect cx="79.2027" cy="588.292" width="158.41" height="13.9676"/>
					<rect x="0" y="581.308" width="158.405" height="13.9676" class="st2"/>
					<text x="57.62" y="590.69" class="st3" v:langID="5129"><v:paragraph v:horizAlign="1"/><v:tabList/>envirValidate</text>				</g>
				<g id="shape14-8" v:mID="14" v:groupContext="shape" transform="translate(18.8578,-8.9792)">
					<title>Sheet.14</title>
					<desc>addToRowValidate</desc>
					<v:textBlock v:margins="rect(1,1,1,1)" v:tabSpace="42.5197"/>
					<v:textRect cx="79.2027" cy="588.292" width="158.41" height="13.9676"/>
					<rect x="0" y="581.308" width="158.405" height="13.9676" class="st2"/>
					<text x="48.52" y="590.69" class="st3" v:langID="5129"><v:paragraph v:horizAlign="1"/><v:tabList/>addToRowValidate</text>				</g>
				<g id="shape15-11" v:mID="15" v:groupContext="shape" transform="translate(27.9095,-46.8914)">
					<title>Sheet.15</title>
					<desc>validation.R</desc>
					<v:textBlock v:margins="rect(1,1,1,1)" v:tabSpace="42.5197"/>
					<v:textRect cx="68.2652" cy="592.283" width="136.54" height="5.98613"/>
					<rect x="0" y="589.289" width="136.53" height="5.98613" class="st4"/>
					<text x="49.04" y="594.68" class="st3" v:langID="5129"><v:paragraph v:horizAlign="1"/><v:tabList/>validation.R</text>				</g>
			</g>
			<g id="group24-14" transform="translate(579.469,-365.059)" v:mID="24" v:groupContext="group">
				<title>Sheet.24</title>
				<g id="shape18-15" v:mID="18" v:groupContext="shape" transform="translate(9.9952,0)">
					<title>Function / subroutine.18</title>
					<v:userDefs>
						<v:ud v:nameU="visVersion" v:val="VT0(15):26"/>
					</v:userDefs>
					<rect x="0" y="503.354" width="168.661" height="91.9219" class="st1"/>
				</g>
				<g id="shape19-17" v:mID="19" v:groupContext="shape" transform="translate(20.8825,-71.8662)">
					<title>Sheet.19</title>
					<desc>captionOrganise</desc>
					<v:textBlock v:margins="rect(1,1,1,1)" v:tabSpace="42.5197"/>
					<v:textRect cx="75.4311" cy="588.033" width="150.87" height="14.4847"/>
					<rect x="0" y="580.791" width="150.862" height="14.4847" class="st2"/>
					<text x="48.84" y="590.43" class="st3" v:langID="5129"><v:paragraph v:horizAlign="1"/><v:tabList/>captionOrganise</text>				</g>
				<g id="shape20-20" v:mID="20" v:groupContext="shape" transform="translate(20.8825,-49.5821)">
					<title>Sheet.20</title>
					<desc>lineRule</desc>
					<v:textBlock v:margins="rect(1,1,1,1)" v:tabSpace="42.5197"/>
					<v:textRect cx="75.4311" cy="588.033" width="150.87" height="14.4847"/>
					<rect x="0" y="580.791" width="150.862" height="14.4847" class="st2"/>
					<text x="62.32" y="590.43" class="st3" v:langID="5129"><v:paragraph v:horizAlign="1"/><v:tabList/>lineRule</text>				</g>
				<g id="shape21-23" v:mID="21" v:groupContext="shape" transform="translate(20.8825,-27.298)">
					<title>Sheet.21</title>
					<desc>hlineLocation</desc>
					<v:textBlock v:margins="rect(1,1,1,1)" v:tabSpace="42.5197"/>
					<v:textRect cx="75.4311" cy="588.033" width="150.87" height="14.4847"/>
					<rect x="0" y="580.791" width="150.862" height="14.4847" class="st2"/>
					<text x="53.54" y="590.43" class="st3" v:langID="5129"><v:paragraph v:horizAlign="1"/><v:tabList/>hlineLocation</text>				</g>
				<g id="shape22-26" v:mID="22" v:groupContext="shape" transform="translate(21.2597,-5.01392)">
					<title>Sheet.22</title>
					<desc>assignAddCommands</desc>
					<v:textBlock v:margins="rect(1,1,1,1)" v:tabSpace="42.5197"/>
					<v:textRect cx="75.2426" cy="588.033" width="150.49" height="14.4847"/>
					<rect x="0" y="580.791" width="150.485" height="14.4847" class="st2"/>
					<text x="40.46" y="590.43" class="st3" v:langID="5129"><v:paragraph v:horizAlign="1"/><v:tabList/>assignAddCommands</text>				</g>
				<g id="shape23-29" v:mID="23" v:groupContext="shape" transform="translate(25.5473,-91.9219)">
					<title>Sheet.23</title>
					<desc>preProcessInternal.R</desc>
					<v:textBlock v:margins="rect(1,1,1,1)" v:tabSpace="42.5197"/>
					<v:textRect cx="70.7167" cy="592.49" width="141.44" height="5.57103"/>
					<rect x="0" y="589.705" width="141.433" height="5.57103" class="st4"/>
					<text x="36.9" y="594.89" class="st3" v:langID="5129"><v:paragraph v:horizAlign="1"/><v:tabList/>preProcessInternal.R</text>				</g>
			</g>
			<g id="group36-32" transform="translate(526.471,-220.328)" v:mID="36" v:groupContext="group">
				<title>Sheet.36</title>
				<g id="shape25-33" v:mID="25" v:groupContext="shape">
					<title>Function / subroutine.25</title>
					<v:userDefs>
						<v:ud v:nameU="visVersion" v:val="VT0(15):26"/>
					</v:userDefs>
					<rect x="0" y="494.375" width="255.749" height="100.9" class="st1"/>
				</g>
				<g id="shape26-35" v:mID="26" v:groupContext="shape" transform="translate(12.0418,-75.1146)">
					<title>Sheet.26</title>
					<desc>floatingEnv</desc>
					<v:textBlock v:margins="rect(1,1,1,1)" v:tabSpace="42.5197"/>
					<v:textRect cx="54.188" cy="587.988" width="108.38" height="14.5745"/>
					<rect x="0" y="580.701" width="108.376" height="14.5745" class="st2"/>
					<text x="35.92" y="590.39" class="st3" v:langID="5129"><v:paragraph v:horizAlign="1"/><v:tabList/>floatingEnv</text>				</g>
				<g id="shape28-38" v:mID="28" v:groupContext="shape" transform="translate(12.0418,-52.6924)">
					<title>Sheet.28</title>
					<desc>indexStart</desc>
					<v:textBlock v:margins="rect(1,1,1,1)" v:tabSpace="42.5197"/>
					<v:textRect cx="54.188" cy="587.988" width="108.38" height="14.5745"/>
					<rect x="0" y="580.701" width="108.376" height="14.5745" class="st2"/>
					<text x="37.52" y="590.39" class="st3" v:langID="5129"><v:paragraph v:horizAlign="1"/><v:tabList/>indexStart</text>				</g>
				<g id="shape29-41" v:mID="29" v:groupContext="shape" transform="translate(12.0418,-31.3912)">
					<title>Sheet.29</title>
					<desc>tbWidth</desc>
					<v:textBlock v:margins="rect(1,1,1,1)" v:tabSpace="42.5197"/>
					<v:textRect cx="54.188" cy="587.988" width="108.38" height="14.5745"/>
					<rect x="0" y="580.701" width="108.376" height="14.5745" class="st2"/>
					<text x="40.73" y="590.39" class="st3" v:langID="5129"><v:paragraph v:horizAlign="1"/><v:tabList/>tbWidth</text>				</g>
				<g id="shape30-44" v:mID="30" v:groupContext="shape" transform="translate(12.0418,-11.2111)">
					<title>Sheet.30</title>
					<desc>bTab</desc>
					<v:textBlock v:margins="rect(1,1,1,1)" v:tabSpace="42.5197"/>
					<v:textRect cx="53.8117" cy="587.988" width="107.63" height="14.5745"/>
					<rect x="0" y="580.701" width="107.623" height="14.5745" class="st2"/>
					<text x="45.74" y="590.39" class="st3" v:langID="5129"><v:paragraph v:horizAlign="1"/><v:tabList/>bTab</text>				</g>
				<g id="shape31-47" v:mID="31" v:groupContext="shape" transform="translate(133.965,-75.1146)">
					<title>Sheet.31</title>
					<desc>longCaptionTop</desc>
					<v:textBlock v:margins="rect(1,1,1,1)" v:tabSpace="42.5197"/>
					<v:textRect cx="54.188" cy="587.988" width="108.38" height="14.5745"/>
					<rect x="0" y="580.701" width="108.376" height="14.5745" class="st2"/>
					<text x="28.4" y="590.39" class="st3" v:langID="5129"><v:paragraph v:horizAlign="1"/><v:tabList/>longCaptionTop</text>				</g>
				<g id="shape32-50" v:mID="32" v:groupContext="shape" transform="translate(133.965,-52.6924)">
					<title>Sheet.32</title>
					<desc>scaleBox</desc>
					<v:textBlock v:margins="rect(1,1,1,1)" v:tabSpace="42.5197"/>
					<v:textRect cx="54.188" cy="587.988" width="108.38" height="14.5745"/>
					<rect x="0" y="580.701" width="108.376" height="14.5745" class="st2"/>
					<text x="40.09" y="590.39" class="st3" v:langID="5129"><v:paragraph v:horizAlign="1"/><v:tabList/>scaleBox</text>				</g>
				<g id="shape33-53" v:mID="33" v:groupContext="shape" transform="translate(133.965,-31.1894)">
					<title>Sheet.33</title>
					<desc>sizeLatex</desc>
					<v:textBlock v:margins="rect(1,1,1,1)" v:tabSpace="42.5197"/>
					<v:textRect cx="54.188" cy="587.988" width="108.38" height="14.5745"/>
					<rect x="0" y="580.701" width="108.376" height="14.5745" class="st2"/>
					<text x="39.48" y="590.39" class="st3" v:langID="5129"><v:paragraph v:horizAlign="1"/><v:tabList/>sizeLatex</text>				</g>
				<g id="shape34-56" v:mID="34" v:groupContext="shape" transform="translate(134.341,-11.2111)">
					<title>Sheet.34</title>
					<desc>captionLatex</desc>
					<v:textBlock v:margins="rect(1,1,1,1)" v:tabSpace="42.5197"/>
					<v:textRect cx="53.8117" cy="587.988" width="107.63" height="14.5745"/>
					<rect x="0" y="580.701" width="107.623" height="14.5745" class="st2"/>
					<text x="32.97" y="590.39" class="st3" v:langID="5129"><v:paragraph v:horizAlign="1"/><v:tabList/>captionLatex</text>				</g>
				<g id="shape35-59" v:mID="35" v:groupContext="shape" transform="translate(49.5139,-100.9)">
					<title>Sheet.35</title>
					<desc>buildParamsInternal.R</desc>
					<v:textBlock v:margins="rect(1,1,1,1)" v:tabSpace="42.5197"/>
					<v:textRect cx="75.2611" cy="589.67" width="150.53" height="11.2111"/>
					<rect x="0" y="584.064" width="150.522" height="11.2111" class="st4"/>
					<text x="39.12" y="592.07" class="st3" v:langID="5129"><v:paragraph v:horizAlign="1"/><v:tabList/>buildParamsInternal.R</text>				</g>
			</g>
			<g id="group50-62" transform="translate(271.984,-268.527)" v:mID="50" v:groupContext="group">
				<title>Sheet.50</title>
				<g id="shape49-63" v:mID="49" v:groupContext="shape" transform="translate(0,-0.150354)">
					<title>Function / subroutine.49</title>
					<v:userDefs>
						<v:ud v:nameU="visVersion" v:val="VT0(15):26"/>
					</v:userDefs>
					<rect x="0" y="528.387" width="163.476" height="66.8888" class="st1"/>
				</g>
				<g id="shape43-65" v:mID="43" v:groupContext="shape" transform="translate(29.6611,-65.4256)">
					<title>Sheet.43</title>
					<desc>buildParams.R</desc>
					<v:textBlock v:margins="rect(1,1,1,1)" v:tabSpace="42.5197"/>
					<v:textRect cx="52.0767" cy="588.308" width="104.16" height="13.9352"/>
					<rect x="0" y="581.34" width="104.153" height="13.9352" class="st4"/>
					<text x="28.7" y="590.71" class="st3" v:langID="5129"><v:paragraph v:horizAlign="1"/><v:tabList/>buildParams.R</text>				</g>
				<g id="shape44-68" v:mID="44" v:groupContext="shape" transform="translate(13.3231,-42.0784)">
					<title>Sheet.44</title>
					<desc>HTML Params (no internal functions)</desc>
					<v:textBlock v:margins="rect(1,1,1,1)" v:tabSpace="42.5197"/>
					<v:textRect cx="67.9261" cy="584.996" width="135.86" height="20.5601"/>
					<rect x="0" y="574.715" width="135.852" height="20.5601" class="st2"/>
					<text x="45.43" y="582.6" class="st3" v:langID="5129"><v:paragraph v:horizAlign="1"/><v:tabList/>HTML Params<v:newlineChar/><tspan
								x="31.65" dy="1.2em" class="st5">(</tspan>no internal functions)</text>				</g>
				<g id="shape45-72" v:mID="45" v:groupContext="shape" transform="translate(13.6627,-15.6016)">
					<title>Sheet.45</title>
					<desc>LatexParams</desc>
					<v:textBlock v:margins="rect(1,1,1,1)" v:tabSpace="42.5197"/>
					<v:textRect cx="67.9261" cy="584.996" width="135.86" height="20.5601"/>
					<rect x="0" y="574.715" width="135.852" height="20.5601" class="st2"/>
					<text x="47.21" y="587.4" class="st3" v:langID="5129"><v:paragraph v:horizAlign="1"/><v:tabList/>LatexParams</text>				</g>
				<g id="shape48-75" v:mID="48" v:groupContext="shape" transform="translate(0.530298,0)">
					<title>Sheet.48</title>
					<desc>results</desc>
					<v:textBlock v:margins="rect(1,1,1,1)" v:tabSpace="42.5197"/>
					<v:textRect cx="81.3981" cy="591.792" width="162.8" height="6.96758"/>
					<rect x="0" y="588.308" width="162.796" height="6.96758" class="st2"/>
					<text x="70.53" y="594.19" class="st3" v:langID="5129"><v:paragraph v:horizAlign="1"/><v:tabList/>results</text>				</g>
			</g>
			<g id="group55-78" transform="translate(0,-168.245)" v:mID="55" v:groupContext="group">
				<title>Sheet.55</title>
				<g id="shape1-79" v:mID="1" v:groupContext="shape">
					<title>Function / subroutine</title>
					<v:userDefs>
						<v:ud v:nameU="visVersion" v:val="VT0(15):26"/>
					</v:userDefs>
					<rect x="0" y="346.715" width="162.796" height="248.561" class="st1"/>
				</g>
				<g id="shape3-81" v:mID="3" v:groupContext="shape" transform="translate(0,-203.626)">
					<title>Sheet.3</title>
					<desc>print.xtable</desc>
					<v:textBlock v:margins="rect(1,1,1,1)" v:tabSpace="42.5197"/>
					<v:textRect cx="81.3981" cy="578.158" width="162.8" height="34.2362"/>
					<rect x="0" y="561.039" width="162.796" height="34.2362" class="st2"/>
					<text x="62.54" y="580.56" class="st3" v:langID="5129"><v:paragraph v:horizAlign="1"/><v:tabList/>print.xtable</text>				</g>
				<g id="shape7-84" v:mID="7" v:groupContext="shape" transform="translate(0,-135.153)">
					<title>Sheet.7</title>
					<desc>Pre-process</desc>
					<v:textBlock v:margins="rect(1,1,1,1)" v:tabSpace="42.5197"/>
					<v:textRect cx="81.3981" cy="561.039" width="162.8" height="68.4723"/>
					<rect x="0" y="526.803" width="162.796" height="68.4723" class="st2"/>
					<text x="62.31" y="563.44" class="st3" v:langID="5129"><v:paragraph v:horizAlign="1"/><v:tabList/>Pre-process</text>				</g>
				<g id="shape8-87" v:mID="8" v:groupContext="shape" transform="translate(0,-75.2401)">
					<title>Sheet.8</title>
					<desc>buildParams</desc>
					<v:textBlock v:margins="rect(1,1,1,1)" v:tabSpace="42.5197"/>
					<v:textRect cx="81.3981" cy="565.319" width="162.8" height="59.9133"/>
					<rect x="0" y="535.362" width="162.796" height="59.9133" class="st2"/>
					<text x="61.2" y="567.72" class="st3" v:langID="5129"><v:paragraph v:horizAlign="1"/><v:tabList/>buildParams</text>				</g>
				<g id="shape9-90" v:mID="9" v:groupContext="shape" transform="translate(0,-29.0213)">
					<title>Sheet.9</title>
					<desc>makeTable</desc>
					<v:textBlock v:margins="rect(1,1,1,1)" v:tabSpace="42.5197"/>
					<v:textRect cx="81.3981" cy="572.166" width="162.8" height="46.2188"/>
					<rect x="0" y="549.057" width="162.796" height="46.2188" class="st2"/>
					<text x="63.6" y="574.57" class="st3" v:langID="5129"><v:paragraph v:horizAlign="1"/><v:tabList/>makeTable</text>				</g>
				<g id="shape10-93" v:mID="10" v:groupContext="shape">
					<title>Sheet.10</title>
					<desc>Result</desc>
					<v:textBlock v:margins="rect(1,1,1,1)" v:tabSpace="42.5197"/>
					<v:textRect cx="81.3981" cy="584.189" width="162.8" height="22.174"/>
					<rect x="0" y="573.102" width="162.796" height="22.174" class="st4"/>
					<text x="71.31" y="586.59" class="st3" v:langID="5129"><v:paragraph v:horizAlign="1"/><v:tabList/>Result</text>				</g>
				<g id="shape11-96" v:mID="11" v:groupContext="shape" transform="translate(0,-237.862)">
					<title>Sheet.11</title>
					<desc>print.xtable.R</desc>
					<v:textBlock v:margins="rect(1,1,1,1)" v:tabSpace="42.5197"/>
					<v:textRect cx="81.3981" cy="590.996" width="162.8" height="8.55904"/>
					<rect x="0" y="586.717" width="162.796" height="8.55904" class="st4"/>
					<text x="59.35" y="593.4" class="st3" v:langID="5129"><v:paragraph v:horizAlign="1"/><v:tabList/>print.xtable.R</text>				</g>
			</g>
			<g id="group56-99" transform="translate(235.739,-186.336)" v:mID="56" v:groupContext="group">
				<title>Sheet.56</title>
				<g id="shape51-100" v:mID="51" v:groupContext="shape" transform="translate(7.89842,0)">
					<title>Function / subroutine.51</title>
					<v:userDefs>
						<v:ud v:nameU="visVersion" v:val="VT0(15):26"/>
					</v:userDefs>
					<rect x="0" y="552.421" width="150.236" height="42.8548" class="st1"/>
				</g>
				<g id="shape52-102" v:mID="52" v:groupContext="shape" transform="translate(13.8116,-8.72968)">
					<title>Sheet.52</title>
					<desc>makeTable</desc>
					<v:textBlock v:margins="rect(1,1,1,1)" v:tabSpace="42.5197"/>
					<v:textRect cx="67.9261" cy="582.578" width="135.86" height="25.3954"/>
					<rect x="0" y="569.88" width="135.852" height="25.3954" class="st2"/>
					<text x="50.13" y="584.98" class="st3" v:langID="5129"><v:paragraph v:horizAlign="1"/><v:tabList/>makeTable</text>				</g>
				<g id="shape53-105" v:mID="53" v:groupContext="shape" transform="translate(32.5271,-42.8548)">
					<title>Sheet.53</title>
					<desc>print.xtable.R</desc>
					<v:textBlock v:margins="rect(1,1,1,1)" v:tabSpace="42.5197"/>
					<v:textRect cx="47.3606" cy="589.324" width="94.73" height="11.9041"/>
					<rect x="0" y="583.371" width="94.7212" height="11.9041" class="st4"/>
					<text x="25.32" y="591.72" class="st3" v:langID="5129"><v:paragraph v:horizAlign="1"/><v:tabList/>print.xtable.R</text>				</g>
			</g>
			<g id="group69-108" transform="translate(430.199,0)" v:mID="69" v:groupContext="group">
				<title>Sheet.69</title>
				<g id="shape54-109" v:mID="54" v:groupContext="shape" transform="translate(6.76188,-31.7443)">
					<title>Function / subroutine.54</title>
					<v:userDefs>
						<v:ud v:nameU="visVersion" v:val="VT0(15):26"/>
					</v:userDefs>
					<rect x="0" y="444.49" width="132.661" height="150.785" class="st1"/>
				</g>
				<g id="shape60-111" v:mID="60" v:groupContext="shape" transform="translate(15.3506,-164.569)">
					<title>Sheet.60</title>
					<desc>addComment</desc>
					<v:textBlock v:margins="rect(1,1,1,1)" v:tabSpace="42.5197"/>
					<v:textRect cx="58.7677" cy="589.72" width="117.54" height="11.1105"/>
					<rect x="0" y="584.165" width="117.535" height="11.1105" class="st2"/>
					<text x="36.58" y="592.12" class="st3" v:langID="5129"><v:paragraph v:horizAlign="1"/><v:tabList/>addComment</text>				</g>
				<g id="shape61-114" v:mID="61" v:groupContext="shape" transform="translate(15.3506,-147.026)">
					<title>Sheet.61</title>
					<desc>captionAdd</desc>
					<v:textBlock v:margins="rect(1,1,1,1)" v:tabSpace="42.5197"/>
					<v:textRect cx="58.7677" cy="589.72" width="117.54" height="11.1105"/>
					<rect x="0" y="584.165" width="117.535" height="11.1105" class="st2"/>
					<text x="40.07" y="592.12" class="st3" v:langID="5129"><v:paragraph v:horizAlign="1"/><v:tabList/>captionAdd</text>				</g>
				<g id="shape62-117" v:mID="62" v:groupContext="shape" transform="translate(15.3506,-129.483)">
					<title>Sheet.62</title>
					<desc>colNames</desc>
					<v:textBlock v:margins="rect(1,1,1,1)" v:tabSpace="42.5197"/>
					<v:textRect cx="58.7677" cy="589.72" width="117.54" height="11.1105"/>
					<rect x="0" y="584.165" width="117.535" height="11.1105" class="st2"/>
					<text x="42.8" y="592.12" class="st3" v:langID="5129"><v:paragraph v:horizAlign="1"/><v:tabList/>colNames</text>				</g>
				<g id="shape63-120" v:mID="63" v:groupContext="shape" transform="translate(15.3506,-111.105)">
					<title>Sheet.63</title>
					<desc>rowNames</desc>
					<v:textBlock v:margins="rect(1,1,1,1)" v:tabSpace="42.5197"/>
					<v:textRect cx="58.7677" cy="589.72" width="117.54" height="11.1105"/>
					<rect x="0" y="584.165" width="117.535" height="11.1105" class="st2"/>
					<text x="41.16" y="592.12" class="st3" v:langID="5129"><v:paragraph v:horizAlign="1"/><v:tabList/>rowNames</text>				</g>
				<g id="shape64-123" v:mID="64" v:groupContext="shape" transform="translate(15.3506,-91.3484)">
					<title>Sheet.64</title>
					<desc>contentFormat</desc>
					<v:textBlock v:margins="rect(1,1,1,1)" v:tabSpace="42.5197"/>
					<v:textRect cx="58.7677" cy="589.72" width="117.54" height="11.1105"/>
					<rect x="0" y="584.165" width="117.535" height="11.1105" class="st2"/>
					<text x="34.3" y="592.12" class="st3" v:langID="5129"><v:paragraph v:horizAlign="1"/><v:tabList/>contentFormat</text>				</g>
				<g id="shape65-126" v:mID="65" v:groupContext="shape" transform="translate(15.3506,-72.4271)">
					<title>Sheet.65</title>
					<desc>addSeparators</desc>
					<v:textBlock v:margins="rect(1,1,1,1)" v:tabSpace="42.5197"/>
					<v:textRect cx="58.7677" cy="589.72" width="117.54" height="11.1105"/>
					<rect x="0" y="584.165" width="117.535" height="11.1105" class="st2"/>
					<text x="35.08" y="592.12" class="st3" v:langID="5129"><v:paragraph v:horizAlign="1"/><v:tabList/>addSeparators</text>				</g>
				<g id="shape66-129" v:mID="66" v:groupContext="shape" transform="translate(15.3506,-54.8842)">
					<title>Sheet.66</title>
					<desc>longtableFinal</desc>
					<v:textBlock v:margins="rect(1,1,1,1)" v:tabSpace="42.5197"/>
					<v:textRect cx="58.7677" cy="589.72" width="117.54" height="11.1105"/>
					<rect x="0" y="584.165" width="117.535" height="11.1105" class="st2"/>
					<text x="35.8" y="592.12" class="st3" v:langID="5129"><v:paragraph v:horizAlign="1"/><v:tabList/>longtableFinal</text>				</g>
				<g id="shape67-132" v:mID="67" v:groupContext="shape" transform="translate(15.3506,-36.7566)">
					<title>Sheet.67</title>
					<desc>floatingFinal</desc>
					<v:textBlock v:margins="rect(1,1,1,1)" v:tabSpace="42.5197"/>
					<v:textRect cx="58.7677" cy="589.72" width="117.54" height="11.1105"/>
					<rect x="0" y="584.165" width="117.535" height="11.1105" class="st2"/>
					<text x="38.67" y="592.12" class="st3" v:langID="5129"><v:paragraph v:horizAlign="1"/><v:tabList/>floatingFinal</text>				</g>
				<g id="shape68-135" v:mID="68" v:groupContext="shape" transform="translate(18.1458,-182.53)">
					<title>Sheet.68</title>
					<desc>makeTableInternal.R</desc>
					<v:textBlock v:margins="rect(1,1,1,1)" v:tabSpace="42.5197"/>
					<v:textRect cx="58.7677" cy="591.308" width="117.54" height="7.93606"/>
					<rect x="0" y="587.34" width="117.535" height="7.93606" class="st4"/>
					<text x="25.02" y="593.71" class="st3" v:langID="5129"><v:paragraph v:horizAlign="1"/><v:tabList/>makeTableInternal.R</text>				</g>
			</g>
			<g id="group76-138" transform="translate(628.338,-61.9157)" v:mID="76" v:groupContext="group">
				<title>Sheet.76</title>
				<g id="shape70-139" v:mID="70" v:groupContext="shape">
					<title>Function / subroutine</title>
					<v:userDefs>
						<v:ud v:nameU="visVersion" v:val="VT0(15):26"/>
					</v:userDefs>
					<rect x="0" y="515.915" width="153.882" height="79.3607" class="st1"/>
				</g>
				<g id="shape72-141" v:mID="72" v:groupContext="shape" transform="translate(12.5127,-54.1324)">
					<title>Sheet.72</title>
					<desc>sanitize</desc>
					<v:textBlock v:margins="rect(1,1,1,1)" v:tabSpace="42.5197"/>
					<v:textRect cx="64.7562" cy="587.34" width="129.52" height="15.8721"/>
					<rect x="0" y="579.403" width="129.512" height="15.8721" class="st2"/>
					<text x="52.43" y="589.74" class="st3" v:langID="5129"><v:paragraph v:horizAlign="1"/><v:tabList/>sanitize</text>				</g>
				<g id="shape73-144" v:mID="73" v:groupContext="shape" transform="translate(13.3767,-30.3242)">
					<title>Sheet.73</title>
					<desc>sanitizeNumbers</desc>
					<v:textBlock v:margins="rect(1,1,1,1)" v:tabSpace="42.5197"/>
					<v:textRect cx="64.7562" cy="587.34" width="129.52" height="15.8721"/>
					<rect x="0" y="579.403" width="129.512" height="15.8721" class="st2"/>
					<text x="37.5" y="589.74" class="st3" v:langID="5129"><v:paragraph v:horizAlign="1"/><v:tabList/>sanitizeNumbers</text>				</g>
				<g id="shape74-147" v:mID="74" v:groupContext="shape" transform="translate(13.3767,-7.51839)">
					<title>Sheet.74</title>
					<desc>sanitizeFinal</desc>
					<v:textBlock v:margins="rect(1,1,1,1)" v:tabSpace="42.5197"/>
					<v:textRect cx="64.7562" cy="587.34" width="129.52" height="15.8721"/>
					<rect x="0" y="579.403" width="129.512" height="15.8721" class="st2"/>
					<text x="44.74" y="589.74" class="st3" v:langID="5129"><v:paragraph v:horizAlign="1"/><v:tabList/>sanitizeFinal</text>				</g>
				<g id="shape75-150" v:mID="75" v:groupContext="shape" transform="translate(33.9631,-79.3607)">
					<title>Sheet.75</title>
					<desc>sanitize.R</desc>
					<v:textBlock v:margins="rect(1,1,1,1)" v:tabSpace="42.5197"/>
					<v:textRect cx="40.7244" cy="589.929" width="81.45" height="10.6928"/>
					<rect x="0" y="584.583" width="81.4488" height="10.6928" class="st4"/>
					<text x="25.21" y="592.33" class="st3" v:langID="5129"><v:paragraph v:horizAlign="1"/><v:tabList/>sanitize.R</text>				</g>
			</g>
			<g id="shape77-153" v:mID="77" v:groupContext="shape" v:layerMember="0" transform="translate(162.796,-354.665)">
				<title>Dynamic connector</title>
				<path d="M0 595.28 L41.05 595.28 A34.0157 34.0157 -180 0 0 75.07 561.26 L75.07 468.47 A34.0157 34.0157 0 0 1 109.08
							 434.46 L430.92 434.46" class="st6"/>
			</g>
			<g id="shape78-162" v:mID="78" v:groupContext="shape" v:layerMember="0" transform="translate(162.796,-329.032)">
				<title>Dynamic connector.78</title>
				<path d="M0 595.28 L75.17 595.28 A14.1732 14.1732 -180 0 0 89.35 581.1 L89.35 543.82 A14.1732 14.1732 0 0 1 103.52
							 529.65 L210.47 529.65 A8.18065 8.18065 -180 0 0 218.65 521.47 L218.65 521.47 A8.18065 8.18065 0 0 1
							 226.83 513.29 L426.67 513.29" class="st6"/>
			</g>
			<g id="shape80-169" v:mID="80" v:groupContext="shape" v:layerMember="0" transform="translate(162.796,-290.237)">
				<title>Dynamic connector.80</title>
				<path d="M0 592.99 L5.83 592.99 A4.79814 4.79814 -180 0 0 10.63 588.19 L10.63 588.19 A4.79814 4.79814 0 0 1 15.43
							 583.39 L102.65 583.39" class="st8"/>
			</g>
			<g id="shape81-175" v:mID="81" v:groupContext="shape" v:layerMember="0" transform="translate(435.46,-302.121)">
				<title>Dynamic connector.81</title>
				<path d="M0 595.28 L5.31 595.28 A5.31496 5.31496 0 0 1 10.63 600.59 L10.63 615.28 A11.3386 11.3386 -180 0 0 21.97
							 626.62 L91.01 626.62" class="st6"/>
			</g>
			<g id="shape83-182" v:mID="83" v:groupContext="shape" v:layerMember="0" transform="translate(312.853,-268.677)">
				<title>Dynamic connector.83</title>
				<path d="M0 595.28 L0 603.61 A8.33016 8.33016 0 0 1 -8.33 611.94 L-91.77 611.94 A10.8159 10.8159 -180 0 0 -102.59
							 622.75 L-102.59 622.75 A10.8159 10.8159 0 0 1 -113.41 633.57 L-143.52 633.57" class="st8"/>
			</g>
			<g id="shape84-187" v:mID="84" v:groupContext="shape" v:layerMember="0" transform="translate(162.796,-219.447)">
				<title>Dynamic connector.84</title>
				<path d="M0 597.77 L50.11 597.77 A4.59651 4.59651 0 0 1 54.71 602.36 L54.71 602.36 A4.59651 4.59651 -180 0 0 59.3
							 606.96 L74.3 606.96" class="st8"/>
			</g>
			<g id="shape85-192" v:mID="85" v:groupContext="shape" v:layerMember="0" transform="translate(393.874,-207.764)">
				<title>Dynamic connector.85</title>
				<path d="M0 595.28 L5.31 595.28 A5.31496 5.31496 0 0 1 10.63 600.59 L10.63 681.73 A14.1732 14.1732 -180 0 0 24.8
							 695.9 L43.09 695.9" class="st6"/>
			</g>
			<g id="shape86-199" v:mID="86" v:groupContext="shape" v:layerMember="0" transform="translate(569.622,-111.453)">
				<title>Dynamic connector.86</title>
				<path d="M0 599.59 L7.86 599.59 A2.77045 2.77045 0 0 1 10.63 602.36 L10.63 602.36 A2.77045 2.77045 -180 0 0 13.4
							 605.13 L58.72 605.13" class="st6"/>
			</g>
			<g id="shape87-206" v:mID="87" v:groupContext="shape" v:layerMember="0" transform="translate(318.756,-188.9)">
				<title>Dynamic connector.87</title>
				<path d="M0 597.84 L0 602.36 A4.52287 4.52287 0 0 1 -4.52 606.89 L-149.42 606.89" class="st8"/>
			</g>
		</g>
	</g>
</svg>
